<svg width="180" height="180" viewBox="0 0 180 180" fill="none" xmlns="http://www.w3.org/2000/svg">
<path d="M85.6473 38.7501C91.5973 36.8991 96.7274 38.0739 101.393 42.0632C85.2161 69.8949 69.107 97.6336 52.7782 125.727C55.8039 125.727 58.2888 125.727 61.2638 125.727C60.4017 126.927 59.8439 127.866 59.1339 128.66C55.5081 132.742 50.8682 135.126 45.5098 135.447C39.6189 135.802 33.7026 135.531 27.4736 135.531C28.0653 134.466 28.5723 133.511 29.1048 132.565C45.4223 103.288 61.74 74.008 78.0576 44.7255C79.7226 41.742 82.4271 40.0516 85.6473 38.7501Z" fill="#1F2D39"/>
<path d="M93.8964 66.3451C93.6851 65.576 93.2372 64.7646 93.4738 64.3336C96.8207 58.3243 100.261 52.3574 103.76 46.2299C120.038 76.09 136.189 105.722 152.526 135.7C145.385 135.261 138.429 136.605 131.6 134.678C126.85 133.342 122.785 130.215 120.114 125.955C122.565 125.955 124.906 125.955 127.923 125.955C116.446 105.84 105.213 86.1645 93.8964 66.3451Z" fill="url(#paint0_linear_2004_106)"/>
<path d="M90.2616 85.2264C91.3181 88.362 96.93 106.221 98.857 113.768C99.305 115.501 100.091 115.949 101.756 115.889C105.12 115.771 108.484 115.856 111.738 115.856C107.436 120.377 103.21 124.823 98.8739 129.37C96.0849 132.252 93.3972 135.024 90.6419 137.881C83.3987 130.384 76.3839 123.141 69.4027 115.923C71.2706 115.923 73.6708 115.889 76.0711 115.923C81.2689 116.008 81.2773 116.033 82.5958 111.14" fill="url(#paint1_linear_2004_106)"/>
<defs>
<linearGradient id="paint0_linear_2004_106" x1="122.908" y1="100.178" x2="90.8744" y2="45.1703" gradientUnits="userSpaceOnUse">
<stop stop-color="#00FF00"/>
<stop offset="1"/>
</linearGradient>
<linearGradient id="paint1_linear_2004_106" x1="92.7667" y1="112.971" x2="78.3986" y2="88.297" gradientUnits="userSpaceOnUse">
<stop stop-color="#00FF00"/>
<stop offset="1"/>
</linearGradient>
</defs>
</svg>
